<svg id="Lag_1" data-name="Lag 1" xmlns="http://www.w3.org/2000/svg" viewBox="0 0 1920 1080"><defs><style>.cls-1{opacity:0.04;}.cls-2{fill:#232323;}.cls-3,.cls-4,.cls-5{opacity:0.06;font-family:STALKER1, STALKER1;}.cls-3{font-size:75.48px;}.cls-4{font-size:53.66px;}.cls-5{font-size:107.46px;}</style></defs><title>background</title><g class="cls-1"><path class="cls-2" d="M946.69,523l18.71-71.23L915,438.53a278.42,278.42,0,0,0-.91-72.9l50.81-13.88L945.49,280.7l-51.62,14.11a281.35,281.35,0,0,0-36.92-62L895,194.33l-52.33-51.81-38.52,38.91a277.74,277.74,0,0,0-62.4-35l14.05-53.51L684.62,74.23,670.47,128.1a277.52,277.52,0,0,0-71.15.5L584.59,74.73l-71,19.41,14.76,54a281,281,0,0,0-61.44,35.74l-39.69-39.29-51.82,52.33,39.39,39A277.52,277.52,0,0,0,379,297.77l-53.26-14L307.08,355l52.71,13.85a277.36,277.36,0,0,0-.33,72L307.58,455l19.41,71,51.22-14a281.67,281.67,0,0,0,36.13,63.08l-36.91,37.28,52.34,51.81,36.37-36.73a278,278,0,0,0,63.52,36.72l-13,49.6,71.22,18.7,12.93-49.23a278,278,0,0,0,73.76-.07l13.33,48.8,71-19.41L745.58,663.8a281.17,281.17,0,0,0,63.65-37.31L845.3,662.2l51.81-52.33L860.86,574a278.22,278.22,0,0,0,36-64.07ZM585.46,602.52C477.05,574.05,412,462.68,440.48,354.26s139.84-173.45,248.26-145,173.45,139.85,145,248.26S693.88,631,585.46,602.52Z"/></g><g class="cls-1"><path class="cls-2" d="M1429.86,576.37V522.58H1391.8a202.86,202.86,0,0,0-14.17-51.32L1411,452l-26.9-46.58L1350.21,425a205.43,205.43,0,0,0-37.58-37l19.77-34.25-46.58-26.89-20,34.63a202.94,202.94,0,0,0-50.57-13.13V308h-53.79v40.68a203,203,0,0,0-50.17,13.55l-20.4-35.32-46.58,26.89,20.45,35.41A205.48,205.48,0,0,0,1028,425.83l-35.33-20.4L965.76,452l35,20.24a203.24,203.24,0,0,0-13.75,50.32H946.85v53.79h39.8a202.87,202.87,0,0,0,13.13,50.93l-34,19.64,26.89,46.58,33.59-19.38A205.59,205.59,0,0,0,1063.47,712l-19.16,33.19,46.58,26.89,18.88-32.7a203.12,203.12,0,0,0,51.69,14.16V791h53.79V753.8a202.58,202.58,0,0,0,52.09-13.73l18.48,32,46.58-26.89-18.49-32A205.51,205.51,0,0,0,1352,675l32.1,18.53,26.9-46.58-32.28-18.63a202.61,202.61,0,0,0,13.53-51.94Zm-240.43,123.2C1107.56,699.57,1041,633,1041,551.09s66.61-148.48,148.48-148.48,148.48,66.61,148.48,148.48S1271.3,699.57,1189.43,699.57Z"/></g><g class="cls-1"><path class="cls-2" d="M1625.29,831,1619,794.72l-25.64,4.42a138.85,138.85,0,0,0-15.5-32.93l20.21-16.83-23.53-28.26L1554,738.22a140.73,140.73,0,0,0-29.61-20.53l9.34-25.36-34.5-12.71-9.45,25.66a138.89,138.89,0,0,0-35.59-3l-4.7-27.22-36.23,6.25,4.72,27.4a139.13,139.13,0,0,0-32.22,15l-17.85-21.43-28.25,23.54,17.89,21.47a140.37,140.37,0,0,0-20.52,29l-26.17-9.64-12.7,34.51,26,9.56a138.57,138.57,0,0,0-3.42,35.5l-27.09,4.67,6.25,36.24,26.81-4.63a138.82,138.82,0,0,0,14.76,32.78l-20.63,17.19,23.53,28.25,20.37-17a140.79,140.79,0,0,0,29.48,21.18l-9,24.58,34.51,12.7L1428.6,978a138.87,138.87,0,0,0,36.46,3.53l4.35,25.23,36.24-6.25-4.32-25a138.72,138.72,0,0,0,33.5-15.31L1551,979.53,1579.25,956l-16.18-19.42a140.72,140.72,0,0,0,21.19-30.14L1608,915.2l12.71-34.51-23.91-8.8a138.38,138.38,0,0,0,3.08-36.56ZM1477.63,941.89a101.5,101.5,0,1,1,82.77-117.28A101.62,101.62,0,0,1,1477.63,941.89Z"/></g><text class="cls-3" transform="translate(1049 576.06) scale(0.93 1)">&lt;script&gt;</text><text class="cls-4" transform="translate(1366.08 849.32) rotate(6.72)">&lt;style&gt;</text><text class="cls-5" transform="translate(457.75 461.07) rotate(-8.2)">&lt;/html&gt;</text></svg>