<svg id="Layer_1" data-name="Layer 1" xmlns="http://www.w3.org/2000/svg" xmlns:xlink="http://www.w3.org/1999/xlink" viewBox="0 0 819.7 1415.15"><defs><style>.cls-1,.cls-18{fill:#fff;}.cls-2{fill:#444044;}.cls-3{fill:#7c5a38;}.cls-4{fill:#b38656;}.cls-5{fill:#83364e;}.cls-6{fill:#fddfbc;}.cls-7{fill:#f6cc97;}.cls-8{fill:#fedeaf;}.cls-9{fill:#ede1e9;}.cls-10{fill:#12100b;}.cls-11{clip-path:url(#clip-path);}.cls-12{fill:#423e3c;}.cls-13{fill:#7a7675;}.cls-14{fill:#9f9c9a;}.cls-15{clip-path:url(#clip-path-2);}.cls-16{fill:#d9aa9a;}.cls-17{fill:#ee7fa3;}.cls-17,.cls-18{fill-rule:evenodd;}.cls-19{fill:#d7ccd4;}.cls-20{fill:#481b1f;}.cls-21{fill:#6e2b3b;}.cls-22{fill:#f191bc;}.cls-23{fill:#3c3c3b;}</style><clipPath id="clip-path"><path class="cls-1" d="M392,179.34s-3.28-6.67-12.47-6.55-11.22,5.42-11.22,5.42a14.29,14.29,0,0,0,10.33,4C385.23,182.11,390,181.48,392,179.34Z"/></clipPath><clipPath id="clip-path-2"><path class="cls-1" d="M416.82,179.34s3.28-6.67,12.47-6.55,11.22,5.42,11.22,5.42a14.29,14.29,0,0,1-10.33,4C423.62,182.11,418.84,181.48,416.82,179.34Z"/></clipPath></defs><title>Tegnebræt 6</title><path class="cls-2" d="M169.85,435.26H101.79l-2.43-16.78A10.7,10.7,0,0,1,107,406.33a112.42,112.42,0,0,1,57.42.06,10.72,10.72,0,0,1,7.84,12.2Zm-63.22-5.59H165l1.71-11.88a5.13,5.13,0,0,0-3.69-6,106.81,106.81,0,0,0-54.57-.08,5.11,5.11,0,0,0-3.56,5.95Z"/><rect class="cls-3" x="35.72" y="426.17" width="202.29" height="133.31" rx="20.98" ry="20.98"/><path class="cls-4" d="M217.42,556.52H56.31A17.88,17.88,0,0,1,38.52,538.6V446.13A17.88,17.88,0,0,1,56.31,428.2H217.42a17.89,17.89,0,0,1,17.8,17.93V538.6A17.88,17.88,0,0,1,217.42,556.52ZM56.31,429.14a16.94,16.94,0,0,0-16.86,17V538.6a16.94,16.94,0,0,0,16.86,17H217.42a16.94,16.94,0,0,0,16.86-17V446.13a16.94,16.94,0,0,0-16.86-17Z"/><rect class="cls-4" x="127.08" y="423.38" width="18.18" height="60.13" rx="4.97" ry="4.97"/><path class="cls-3" d="M139.35,478.69h-6.52a3,3,0,0,1-3-2.95v-8.39a3,3,0,0,1,3-3h6.52a3,3,0,0,1,3,3v8.39A3,3,0,0,1,139.35,478.69Zm-6.52-13.36a2,2,0,0,0-2,2v8.39a2,2,0,0,0,2,2h6.52a2,2,0,0,0,2-2v-8.39a2,2,0,0,0-2-2Z"/><path class="cls-5" d="M578.72,346c-24-3.5-72.52-50.78-87.28-59.8,3.76-8.31-.66-19.56,13.95-25.25,18.81,16.94,62.49,27,117.33,87.3,5,5.5,5.25,14.75,5.25,14.75-3.72,9.92-13,18.17-22,22.65a26.35,26.35,0,0,1-10.64,2.68c-4.62.2-9.59.21-14.16-1a15.63,15.63,0,0,1-3-.91c-11.43-4.75-41.36-12.15-56.86-17.15-16.4-5.29-36-13.15-53.13-14.44-14.13-1.07-28.52-2-41.79-7A97.39,97.39,0,0,1,407.41,338c-9-5.86-17.51-12.84-23.28-21.89s-8.52-20.44-5.49-30.74c1.21-4.12,3.48-8.14,7.17-10.33,4.75-2.81,10.72-2.06,16.14-1,24.59,4.78,48.08,13.89,72,21.46l47,19.58a6.42,6.42,0,0,1,1.07.56Z"/><path class="cls-6" d="M121.19,403.44c1.92-.28,2.5-.16,4.5-.38.39,0,1.08-.18,1.47-.22,0,0,0,.09.09.07s0,.11.19.06a43.71,43.71,0,0,0-5.88-2.84c-6.5-2.12-15.27-3.09-15.44-.21-.09,1.46,3.8,2.52,8.77,4.58C118.22,403.84,119.69,403.66,121.19,403.44Z"/><path class="cls-6" d="M202.53,417a108.85,108.85,0,0,0-11.61-17.25c-7.14-8.74-7-26.22-7.79-27.56s-1.62-3.1-6.82,5.15,2.94,21.09,2.94,21.09-3.32,5.18-9.19,6.17-18.5-9.69-24.84-13.38-22.63-8.69-27-7.64,1.78,4.6,6.8,7.3,26.31,16.73,24,17.95c-1.48.78-8.91.68-13.58-.57-4.17-.25-5.57-.39-8.17.17-1.3.28-4,.51-5.33.75.75.43,4.66,2.38,5.16,2.8,4.65,3.88,12.61,6.1,12.61,6.1A79.06,79.06,0,0,1,128,416.34c-7.81-1.59-20-1.67-19.7,1.52s20.37,6.61,25.45,8.65,14,2.72,14,2.72-12.35,2.13-19.61,2.8-9.39,4.46-9.35,6.41,28.71-2.17,33.8-1.88,26.39,5.37,33.11,7.88,17.55,14.72,17.55,14.72l36.29-9.24C223.56,443.74,204.71,420.61,202.53,417Z"/><path class="cls-5" d="M345,357.23c-1.55-10.62-4.31-21.28-10.1-30.32s-15-16.32-25.59-17.89c-4.24-.63-8.84-.26-12.38,2.17-4.55,3.12-6.38,8.86-7.7,14.22-6,24.32-7.59,49.47-10.75,74.31-2.75,21.7-6.71,43.22-11,64.67-4.45-2.29-8.86-4.63-13.08-7.27a106.38,106.38,0,0,1-34.73-35.4,133.89,133.89,0,0,1-27.52,37.83l52.14,52.6c7.15,7.22,14.52,14.58,23.78,18.74s21,4.44,28.86-2c3.87-3.15,6.47-7.58,8.56-12.11a38.44,38.44,0,0,0,3.18-9.55,16.17,16.17,0,0,0,.46-3.14c.49-12.37,4.36-24.33,8.33-36.05q8.28-24.48,17.35-48.69c5-13.27,10.17-26.72,11.23-40.85A98,98,0,0,0,345,357.23Z"/><path class="cls-2" d="M472.89,245.3q-1.58-37.2-3.13-74.4c-.3-7.06-.6-14.15-2.07-21.06A80.75,80.75,0,0,0,459.85,129c-5.29-10.06-12.33-19.52-21.93-25.6-5.56-3.52-11.8-5.8-18-8.06l-16.62-6.06c-5.11-1.87-12-3.23-15,1.28-.85,1.25-1.3,2.87-2.58,3.67-1.52,1-3.48.33-5.28.26-3.85-.14-7.21,2.42-10.13,4.94a89.89,89.89,0,0,0-14,14.57c-14.47,19.72-15.16,46-15.28,70.47l-.33,69.35c21.71,4,43.59,7.57,65.66,7.75A163.66,163.66,0,0,0,451.63,256a100.88,100.88,0,0,0,3.21-15.58l-1.14,15c3.49-1,6.94-2.23,10.32-3.58a15.23,15.23,0,0,1,1.68-6.23l.81,5.22c1.42-.61,2.83-1.23,4.23-1.89a3,3,0,0,0,2.15-3.61Z"/><path class="cls-6" d="M436.12,279.32c-18.27-20.19-10.78-49.71-10.78-49.71H378.45s4.06,31.44-14.21,51.63c0,0,18.19,11.92,37.29,27.07l41.84,38.21C462.32,343.45,436.12,279.32,436.12,279.32Z"/><path class="cls-7" d="M425.34,229.61H378.45a80,80,0,0,1-.07,16.62c5.25,8.92,16.47,12.08,25.79,14.65,18.59,5.11,16.42,3,23,3.41C420.93,247.05,425.34,229.61,425.34,229.61Z"/><path class="cls-8" d="M440.54,128.09a80.6,80.6,0,0,0-11.28-7.91,35.16,35.16,0,0,0-17.83-4.7h-7.86s0,0,0,0l0,0h-7.87a35.16,35.16,0,0,0-17.83,4.7,80.6,80.6,0,0,0-11.28,7.91c-11.15,9.56-8.92,35.45-8.47,42.62a134,134,0,0,1,0,14.34c.44,9.16,2.23,23.06,8.47,35.41s16.95,21.55,22.3,26.73c4.39,4.25,12.08,3.67,14.7,3.32,2.61.35,10.3.93,14.69-3.32,5.36-5.18,16.06-14.38,22.3-26.73s8-26.25,8.47-35.41a134,134,0,0,1,0-14.34C449.46,163.54,451.69,137.65,440.54,128.09Z"/><path class="cls-7" d="M393.27,162.3a98.22,98.22,0,0,1,5.21,46.79s1-18.41-6.44-29.75l-23.69-1.13s-2,.35-5.08-15C363.27,163.25,372.78,153.41,393.27,162.3Z"/><path class="cls-9" d="M368.35,178.21l-2.26-3s9.07-10.64,19.08-5.48c0,0,6.82,2.23,6.91,9.31Z"/><path class="cls-10" d="M392.08,179s-2.65-6.56-11.55-7.56a12.93,12.93,0,0,0-12.72,5.75,9.28,9.28,0,0,0,7.72,5.84C381.67,183.76,388.89,182.79,392.08,179Z"/><path class="cls-1" d="M392,179.34s-3.28-6.67-12.47-6.55-11.22,5.42-11.22,5.42a14.29,14.29,0,0,0,10.33,4C385.23,182.11,390,181.48,392,179.34Z"/><g class="cls-11"><path class="cls-10" d="M385.75,176.68a6.22,6.22,0,1,1-6.21-6.21A6.22,6.22,0,0,1,385.75,176.68Z"/><path class="cls-12" d="M384.56,176.68a5,5,0,1,1-5-5A5,5,0,0,1,384.56,176.68Z"/><path class="cls-13" d="M383.18,176.62A3.58,3.58,0,1,1,379.6,173,3.58,3.58,0,0,1,383.18,176.62Z"/><path class="cls-10" d="M381.93,176.57a2.39,2.39,0,1,1-2.39-2.39A2.39,2.39,0,0,1,381.93,176.57Z"/><path class="cls-14" d="M382,175.32a1.4,1.4,0,1,1-1.4-1.39A1.4,1.4,0,0,1,382,175.32Z"/><path class="cls-13" d="M382,174.88a1.17,1.17,0,1,1-1.17-1.17A1.17,1.17,0,0,1,382,174.88Z"/><path class="cls-1" d="M377.31,175.73a1.14,1.14,0,1,1-1.14-1.15A1.14,1.14,0,0,1,377.31,175.73Z"/></g><path class="cls-10" d="M368.35,178.21s-1.82-.13-2.89-4c0,0,1.63,2.08,3.4,2.14l1.19-1.45s-1.64-.63-1.64-3.65a6,6,0,0,0,3,2.58l1.13-.63s-1-.63-.82-3.21c0,0,1.39,2.33,2.46,2.71l.88-.44-.5-2.4s.75,1.79,2,2.19C376.54,172.08,370.62,173.55,368.35,178.21Z"/><path class="cls-10" d="M391.66,175.44s-2.65-6-12.47-5.86-12.28,4.6-12.28,4.6,3.77-6.3,13.16-5.48S391.66,175.44,391.66,175.44Z"/><path class="cls-10" d="M393.27,162.3s1.36,1.9-1.2,1.33-6.48-3.29-15.52-3.29-13.28,2.91-13.28,2.91,5.81-5.48,17.52-4.88C389.35,158.82,393.27,162.3,393.27,162.3Z"/><path class="cls-9" d="M440.51,178.21l2.26-3s-9.07-10.64-19.08-5.48c0,0-6.83,2.23-6.91,9.31Z"/><path class="cls-10" d="M416.78,179s2.65-6.56,11.55-7.56a12.93,12.93,0,0,1,12.72,5.75,9.28,9.28,0,0,1-7.73,5.84C427.19,183.76,420,182.79,416.78,179Z"/><path class="cls-1" d="M416.82,179.34s3.28-6.67,12.47-6.55,11.22,5.42,11.22,5.42a14.29,14.29,0,0,1-10.33,4C423.62,182.11,418.84,181.48,416.82,179.34Z"/><g class="cls-15"><path class="cls-10" d="M429.32,182.9a6.22,6.22,0,1,0-6.21-6.22A6.22,6.22,0,0,0,429.32,182.9Z"/><path class="cls-12" d="M429.32,181.7a5,5,0,1,0-5-5A5,5,0,0,0,429.32,181.7Z"/><path class="cls-13" d="M429.26,180.18a3.44,3.44,0,1,0-3.44-3.44A3.44,3.44,0,0,0,429.26,180.18Z"/><path class="cls-10" d="M429.11,174.1a2.39,2.39,0,1,0,2.39,2.39A2.39,2.39,0,0,0,429.11,174.1Z"/><path class="cls-1" d="M426.89,175.73a1.15,1.15,0,1,1-1.15-1.15A1.14,1.14,0,0,1,426.89,175.73Z"/><path class="cls-14" d="M430.36,174a1.4,1.4,0,1,0,1.4,1.4A1.4,1.4,0,0,0,430.36,174Z"/><path class="cls-13" d="M430.81,174a1.17,1.17,0,1,0,1.17,1.17A1.17,1.17,0,0,0,430.81,174Z"/></g><path class="cls-10" d="M440.51,178.21s1.82-.13,2.89-4c0,0-1.63,2.08-3.4,2.14l-1.2-1.45s1.64-.63,1.64-3.65a6,6,0,0,1-3,2.58l-1.13-.63s1-.63.81-3.21c0,0-1.38,2.33-2.45,2.71l-.88-.44.5-2.4s-.76,1.79-1.95,2.19C432.32,172.08,438.24,173.55,440.51,178.21Z"/><path class="cls-10" d="M417.2,175.44s2.65-6,12.47-5.86,12.29,4.6,12.29,4.6-3.79-6.3-13.17-5.48S417.2,175.44,417.2,175.44Z"/><path class="cls-10" d="M415.59,162.3s-1.36,1.9,1.2,1.33,6.48-3.29,15.52-3.29,13.28,2.91,13.28,2.91-5.81-5.48-17.52-4.88C419.51,158.82,415.59,162.3,415.59,162.3Z"/><path class="cls-16" d="M404.33,212.47a12,12,0,0,0,5.49-3.38,6.33,6.33,0,0,0-5.67.56,6.33,6.33,0,0,0-5.67-.56,12,12,0,0,0,5.49,3.38Z"/><path class="cls-17" d="M420.25,221.38c.47,1.38-1.09,2.66-2.08,3.82-2.8,3.31-8.29,7.91-14.23,7.64-7.61-.35-12-6.27-16-11.11,4.61-.59,12.75-3.75,16.32,0C407.71,217.77,415.18,220.89,420.25,221.38Zm-31.59.7c6.41,4.44,18.64,5.77,26,2.43,1.9-.86,4-1.77,4.86-3.13C410.7,225.35,397.64,223.65,388.66,222.08Z"/><path class="cls-18" d="M419.56,221.38c-.82,1.36-3,2.27-4.86,3.13-7.4,3.34-19.63,2-26-2.43C397.64,223.65,410.7,225.35,419.56,221.38Z"/><path class="cls-2" d="M352.65,157.61c.2-6.18.68-12.42,2.48-18.34a43.45,43.45,0,0,1,31.24-29.15,16.41,16.41,0,0,1,7.84-.27c2.55.68,6.41,7.94,7,10.51-4,.73-10.34-.7-13.68,1.6C378.7,128,373.14,135.12,370,145.38c-2.77,9-2.89,18.7-6.41,27.41a37.51,37.51,0,0,1-9.76,13.91A204.79,204.79,0,0,1,352.65,157.61Z"/><path class="cls-2" d="M420.75,124.76c2.6,3.28,3.73,7.47,4.36,11.6a59.49,59.49,0,0,1-.28,19.7c3.5-6.48,3.77-14.16,4-21.52.09-3.78.18-7.65-1-11.23A71,71,0,0,1,429,162.78a22.42,22.42,0,0,0,3.15-8.36,81.67,81.67,0,0,0,1.18-26.28c1.8,1.31,2.48,3.64,3,5.82,1.88,8.71,2.42,17.75,5.42,26.14s9.19,16.38,17.89,18.29c-1.73,0-2.35-2.27-2.41-4-.35-9.21.2-18.45-.58-27.64s-3-18.49-8.29-26a66,66,0,0,0-8.53-9.4c-4.38-4.18-9-8.33-14.55-10.71a50.79,50.79,0,0,0-8.5-2.56c-4.34-1-8.87-1.93-13.21-.94s-8.45,4.44-8.77,8.88a13.58,13.58,0,0,0,1.53,6.38,43.78,43.78,0,0,0,5.12,8.61A15.67,15.67,0,0,1,420.75,124.76Z"/><path class="cls-2" d="M377.09,154.07c-.72-4.76-2-9.43-2.49-14.21s-.17-9.83,2.14-14.06,6.9-7.42,11.7-7A36.38,36.38,0,0,0,379,135.15,59.94,59.94,0,0,0,377.09,154.07Z"/><path class="cls-19" d="M467,318.8c-4.39-8.19-9.46-16-14.51-23.8-2.77-4.27-5.56-8.57-9.23-12.09a35.75,35.75,0,0,0-9.07-6.27c9.1,21.09,7.19,52.75,7.19,52.75-13.51-18.78-28.66-22.73-52.7-39.53-12.52-8.75-14.28-16.42-16.64-20.91-.76.05-5.23,1-6,1.05a6.39,6.39,0,0,0-3.34.94c-1.61,1.22-1.72,3.56-1.57,5.57,1.78,23.05,18.93,41.41,31.46,60.84,26.63,41.3,33.69,91.7,46.34,139.19a7.7,7.7,0,0,0,1.22,2.9c2,2.53,6.08,1.55,9,.08,12.42-6.3,22-17.43,28-30s8.68-26.51,9.55-40.42A169.52,169.52,0,0,0,467,318.8Z"/><path class="cls-7" d="M486.28,1280.7c-16.57-18-31.5-39-35.23-63.75-1.92-12.67.23-24.88,1.61-37.45,1.72-15.7,3.81-31.37,6.6-46.92,5.07-28.27,11.31-55.17,15.83-74,4.75-19.76,4.47-36.3,7-56.53,2.85-23.07,12.16-29.89,15-53,13.51-109.33,27-219.22,24.16-329.45l-12.38-21.12c3.72-9.35-.48-20.82-8.13-26.92s-17.88-7.49-27.34-6.08c-30.27,4.52-52.28,35.24-58.45,67.06s.12,64.69,6.38,96.48l14.61,74.14c9.22,46.81,21.47,95.75,6.87,141-7.17,22.22-18.53,41.55-22.8,64.6-4.11,22.15-4.58,46.45-2.1,68.87a499.35,499.35,0,0,1-.34,112.53,57.29,57.29,0,0,1-4,11c-3.32,6.75-8,13-9.47,20.37-2.14,10.84,3.12,21.55,6.2,32.16a83.15,83.15,0,0,1,3.18,27.26c4.93,2.81,14.78,4,14.48-4.54L436.5,1290c2.49,4,5.12,8.06,9.1,10.52a26.93,26.93,0,0,0,8.2,3,103.4,103.4,0,0,0,43.08.71,5.35,5.35,0,0,0,3.12-1.4c1.33-1.56.5-3.95-.51-5.74C496,1291,491.06,1285.88,486.28,1280.7Z"/><path class="cls-20" d="M501.44,1298.93c-3.59-6.7-9-12.19-14.23-17.74-1.53-1.62-3.81-4.43-5.3-6.11-8.86,11.35-26.91,7.72-38.44,1.12-24-13.59-26.19-42-33.28-66.53a1.27,1.27,0,0,0-2.33-.29c-2.22,3.91-4.24,7.88-5.12,12.24-2.19,10.91,3.21,21.7,6.37,32.37a82.18,82.18,0,0,1,3.27,27.44c5.06,2.83,15.19,4,14.88-4.57l8.82,13.74c2.56,4,5.25,8.11,9.34,10.58a28,28,0,0,0,8.43,3,108.33,108.33,0,0,0,44.25.71c1.8-.35,3.8-.86,3.95-3.45A4.91,4.91,0,0,0,501.44,1298.93Z"/><path class="cls-6" d="M476.87,904.2c-.46-13.45-4.32-26.47-7.55-39.49-14.45-58.07-17-118.6-24.13-178.2-2.75-23.13-6.32-46.62-16.32-67.37s-27.51-38.63-49.08-42.84-46.45,8.7-52.24,31.18c-3.57,13.86.15,28.53,3.87,42.35,22.51,83.73,45.11,167.76,77.91,247.57,2.28,5.55,4.64,11.24,5,17.29,1,17.1-13.51,29.91-23.76,43.14-23.07,29.79-27.25,70.59-35.81,108.08q-4.47,19.56-10.84,38.56c-.18,0-.34-.12-.53-.18-2.7,7.1-3.79,15.83-9.87,20.37s-14.77,5.48-20.59,10.6c-5.54,4.88-7.49,12.69-7.93,20.06s.31,14.86-1.15,22.1c-2.24,11-9.44,20.62-11.7,31.67-3.08,15,3.31,30.19,10.13,43.91,4.51,9.07,10.71,19.08,20.75,20.45a10.87,10.87,0,0,0,5.6-.55c5.8-2.38,6.88-9.94,7.42-16.17a342.25,342.25,0,0,1,11.73-61.94c22.58-67.29,49.83-133.31,87.76-192.29C455,972.31,478.15,940.75,476.87,904.2Z"/><path class="cls-20" d="M313.34,1205.58c2.72-25.43,4.27-53.62,16-76.75a1.24,1.24,0,0,0-1.62-1.7c-5.09,2.33-10.66,4.72-14.66,8.13-5.74,4.88-7.74,12.69-8.2,20.06s.32,14.86-1.2,22.1c-2.31,11-9.75,20.62-12.1,31.67-3.18,15,3.43,30.19,10.48,43.91,4.8,9.34,11.47,19.68,22.4,20.55a11,11,0,0,0,3.24-.17c7.42-1.58,8.68-9.89,9.29-16.65.79-8.73,2.39-15.69,4-24.47-.22.27-.77-1.25-1-1C328.67,1243.13,312.32,1219.42,313.34,1205.58Z"/><path class="cls-20" d="M480.85,547.75q16,16.08,30.58,33.56c4.34,5.22,8.63,10.61,11.42,16.81,3.41,7.57,4.43,16,5.4,24.22,1.72,14.74,3.39,29.52,3.41,44.36,0,17.86-2.35,35.62-4.71,53.32-3.2,24-7,65.56-10.21,89.54-17.09-1-37-1.11-54.16-.95-31.28.27-59.92,11.12-91.2,11.4-3.34-26.58-16.7-78.27-29.48-101.81s-34.38-58.4-32.81-85.15c1.08-18.22,8.86-42.63,16.08-59.4,7.35-17.09,23.84-17.64,31.2-34.73l105,.46c3.27,0,6.62,0,9.7,1.16C474.91,541.92,478,544.86,480.85,547.75Z"/><path class="cls-21" d="M447.68,643.88a5,5,0,0,0,6.75-4.16,331.24,331.24,0,0,1,17.23-79.55,34.21,34.21,0,0,0,2-7.65,32,32,0,0,0-.84-9.13q-4.5-23.64-9-47.28l-6.54-34.41c-.53-2.76-1-5.53-1.58-8.29q-4.54-23.94-9.1-47.88c-2.39-12.56-19.75-46.46-21.3-48.68L363.75,269c-19.47,14.28-43,29.36-66.65,35.57a6.76,6.76,0,0,0-5,6.14c-1.77,29.74,11.46,54.64,24.77,82.1,14.05,29,30.09,58,34,89.94a37.31,37.31,0,0,1,.19,10c-.68,4.52-2.75,8.69-4.82,12.76-19,37.25-41.38,74.4-45.53,116A334.9,334.9,0,0,1,447.68,643.88Z"/><path class="cls-21" d="M436.28,276.48s33,73.9,39.31,104.3-20.44,88.05-20.44,88.05l18.56,83.69s40.15,50.92,49.57,82.92a1.18,1.18,0,0,0,2.3-.22l3.47-33.79S496.55,516,495,511.81s0-67.09,0-67.09,24.11-46.64,7.86-77.57c-15.14-28.82-15.72-49.45-17.42-65.27a5.26,5.26,0,0,0-3.59-4.43C471.35,294,438.48,282.64,436.28,276.48Z"/><path class="cls-5" d="M332.36,617s9.22-60,25.36-90.58c0,0-23.71,47.43-32.61,91.24Z"/><path class="cls-22" d="M460.49,474.49a3.79,3.79,0,1,1-3.78-3.79A3.79,3.79,0,0,1,460.49,474.49Z"/><path class="cls-22" d="M460.49,500.51a3.79,3.79,0,1,1-3.78-3.79A3.79,3.79,0,0,1,460.49,500.51Z"/><path class="cls-5" d="M374,264.33s-14.58,1-16.31,7.66,20.76,71.15,20.76,71.15,17.54-10.87,32.11-6.67c0,0-28.16-46.44-35.82-58.3s-2.72-9.22-2.72-9.22Z"/><path class="cls-5" d="M407.13,333.67s-24,30.31-28.33,47.44c0,0,54.68,42.16,63.58,57s14.33,32.61,14.33,32.61c1.81-3.62-4.78-59.29-12.68-79.38s-30.31-49.74-33.44-54.85S407.79,333.34,407.13,333.67Z"/><path class="cls-5" d="M428.54,268.45s9.89,4,15.16,10.87,35.24,50.07,35.24,50.07-19.76-3-23.39-1c0,0-15.48-43.81-19.43-49.08S428.21,270.76,428.54,268.45Z"/><path class="cls-5" d="M455.55,328.4s17.46,35.91,17.79,48.09-1.32,48.43-7.9,63.25a211.53,211.53,0,0,0-10.29,29.09s-1.57,3.85,1.56,1.87,34.09-53.36,37.05-74.11-6.25-55.34-6.25-55.34-26.36-18.12-27.67-18.12S455.55,328.4,455.55,328.4Z"/><path class="cls-23" d="M486.66,159.65l12.89,3.9c4.08,1.23,6.1,5.32,4.36,8.83l-30.13,60.69a7.68,7.68,0,0,1-9.32,3.47l-15.14-5.11c-4-1.36-5.88-5.5-4-9L477.69,163A7.72,7.72,0,0,1,486.66,159.65Z"/><path class="cls-6" d="M470.71,228.28c.42,3-8.34,20.14.36,30.14S490.69,287,490.69,287l13.95-25.25s-17.79-16.77-17.13-19.86,3.43-10.6,10.95-21.71,11.59-14.06,10-19.42a58.35,58.35,0,0,1-1.94-9.06s5.17-6.85.27-9.91-8.72-6.2-12.67-9.08-9.64-7-11.66-4,2.79,8.13,2.79,8.13-15.28-1.85-16.19.43,11.46,5.63,13.34,6,6.54,6.38,6.54,6.38l-1.7,15L484.22,207"/></svg>