<svg id="Layer_1" data-name="Layer 1" xmlns="http://www.w3.org/2000/svg" xmlns:xlink="http://www.w3.org/1999/xlink" viewBox="0 0 1442.61 695.86"><defs><style>.cls-1,.cls-16{fill:#fff;}.cls-2{fill:#fddfbc;}.cls-3{fill:#83364e;}.cls-4{fill:#444044;}.cls-5{fill:#f6cc97;}.cls-6{fill:#fedeaf;}.cls-7{fill:#ede1e9;}.cls-8{fill:#12100b;}.cls-9{clip-path:url(#clip-path);}.cls-10{fill:#423e3c;}.cls-11{fill:#7a7675;}.cls-12{fill:#9f9c9a;}.cls-13{clip-path:url(#clip-path-2);}.cls-14{fill:#d9aa9a;}.cls-15{fill:#ee7fa3;}.cls-15,.cls-16{fill-rule:evenodd;}.cls-17{fill:#d7ccd4;}.cls-18{fill:#481b1f;}.cls-19{fill:#6e2b3b;}.cls-20{fill:#f191bc;}.cls-21{fill:#ecc199;}</style><clipPath id="clip-path"><path class="cls-1" d="M1260.65,281.05s5.14-5.79,1.39-14.58-9.63-8.66-9.63-8.66a14.89,14.89,0,0,0,.19,11.53C1255.31,275.59,1257.8,280,1260.65,281.05Z"/></clipPath><clipPath id="clip-path-2"><path class="cls-1" d="M1270.42,304.9s7.71.52,11.22,9.42-.8,12.92-.8,12.92a14.88,14.88,0,0,1-7.95-8.35C1270.43,312.53,1269.15,307.68,1270.42,304.9Z"/></clipPath></defs><title>Tegnebræt 12 kopi</title><path class="cls-2" d="M1300,381.71s11.57-22.63,14.85-22.86,11.58.34,24.85,4.62,17.41,7.48,22.31,4.38a59.58,59.58,0,0,1,8.48-4.56s8.35,3.17,10-2.61,3.66-10.51,5.38-15.3,4.25-11.66.62-12.8-7.3,5.15-7.3,5.15-2.6-15.8-5.13-16-2.3,13.07-2.1,15.06-4.47,8.38-4.47,8.38l-15.49,2.66-5.86-11.35s13.06-4.83,14.06-4.93,16.25-9,13.9-14.34c0,0-15.28,4.65-21.59,6.79s-28.71,3.89-31.59,5.18-19.91,6.52-27.37,18.11-22.78,27.88-22.78,27.88Z"/><path class="cls-3" d="M1280.82,357.24c-27.12,33.07-64.33,57.19-92.12,89.28-28.58-23.49-54.65-49.89-79.62-77.19-8.29-9.06-16.7-18.4-27.54-24.16-3.58-1.9-7.48-3.4-11.53-3.41s-8.27,1.68-10.5,5.05c-1.68,2.53-2.09,5.67-2.19,8.7-.72,22.87,14,43.15,29.16,60.26,17.3,19.49,36.62,37,56.22,54.13,11.28,9.85,35.27,40.58,52.34,35.52a14.07,14.07,0,0,0,3.37-1.52c9.37-2.38,17.24-8.68,24.16-15.43a161.3,161.3,0,0,0,15.21-17.1c6.6-8.57,12.32-17.78,18.85-26.4,6-7.87,12.59-15.21,19.2-22.54,11-12.23,26.67-20.14,37.7-32.37A284,284,0,0,1,1280.82,357.24Z"/><path class="cls-4" d="M1260.08,393.42l56.55-52.88c5.36-5,10.75-10.06,15.21-15.91a84.36,84.36,0,0,0,11.12-20.3c4.34-11,7-22.95,5.32-34.64-1-6.77-3.42-13.24-5.83-19.65L1336,232.83c-2-5.29-5.57-11.63-11.19-11-1.56.18-3.14.93-4.64.46-1.79-.55-2.62-2.53-3.79-4-2.49-3.13-6.79-4-10.75-4.64a93.52,93.52,0,0,0-21-1.18c-25.37,1.95-46.56,19.22-65.93,35.71q-27.47,23.35-54.91,46.73c11.57,19.81,23.56,39.51,38.38,57,10.24,12.1,21.92,23.18,35.08,31.94a105.59,105.59,0,0,0,14.46-8l-12.58,9.24q4.79,3.08,9.82,5.72A15.61,15.61,0,0,1,1255,388l-3.57,4.17q2.16,1.06,4.36,2.06a3.11,3.11,0,0,0,4.3-.76Z"/><path class="cls-2" d="M1181.82,362.86c12.23-25.53,43.58-30,43.58-30l-18.47-45.12s-28.66,16.3-55.28,6.68c0,0-4.3,22.19-11.35,46.54L1120,396.31C1130.44,413.35,1181.82,362.86,1181.82,362.86Z"/><path class="cls-5" d="M1225.4,332.9l-18.47-45.12a82.76,82.76,0,0,1-16,6.48c-6.51,8.57-5.13,20.61-3.93,30.59,2.4,19.9,3.57,17,5.78,23.48C1206.88,335.53,1225.4,332.9,1225.4,332.9Z"/><path class="cls-6" d="M1329.08,307.52a83.94,83.94,0,0,0,3.17-14,36.58,36.58,0,0,0-2.51-19l-3.1-7.56h0l0,0-3.1-7.57A36.67,36.67,0,0,0,1312,244.06a83,83,0,0,0-12.06-7.73c-13.59-7-37.62,5.38-44.35,8.64a138.54,138.54,0,0,1-13.79,5.65c-8.64,4-21.31,11.23-30.73,22.1s-14.06,24.8-16.94,32c-2.36,5.9,1.23,13.08,2.6,15.46.69,2.65,3.17,10.28,9,12.83,7.09,3.11,20.16,9.78,34.5,10.92s28.42-2.62,37.41-5.8a138.1,138.1,0,0,1,13.8-5.65C1298.48,330.07,1324.27,322,1329.08,307.52Z"/><path class="cls-5" d="M1277.54,275.52a102.25,102.25,0,0,1-43,23.45s18.1-6.29,26.08-17.92l-8.24-23.24S1251.28,256,1264.8,247C1264.8,247,1278,252.3,1277.54,275.52Z"/><path class="cls-7" d="M1252.41,257.81l2-3.37s13.81,4.53,12.79,16.2c0,0,.55,7.45-6.23,10.31Z"/><path class="cls-8" d="M1261,281s5.26-5.12,2.72-14.09a13.44,13.44,0,0,0-10.54-10,9.63,9.63,0,0,0-2.58,9.73C1252.31,272.81,1256.1,279.37,1261,281Z"/><path class="cls-1" d="M1260.65,281.05s5.14-5.79,1.39-14.58-9.63-8.66-9.63-8.66a14.89,14.89,0,0,0,.19,11.53C1255.31,275.59,1257.8,280,1260.65,281.05Z"/><g class="cls-9"><path class="cls-8" d="M1260.74,274a6.46,6.46,0,1,1,3.53-8.43A6.46,6.46,0,0,1,1260.74,274Z"/><path class="cls-10" d="M1260.27,272.8a5.22,5.22,0,1,1,2.85-6.81A5.22,5.22,0,0,1,1260.27,272.8Z"/><path class="cls-11" d="M1259.78,271.46a3.73,3.73,0,1,1,2-4.86A3.73,3.73,0,0,1,1259.78,271.46Z"/><path class="cls-8" d="M1259.33,270.23a2.48,2.48,0,1,1,1.36-3.24A2.48,2.48,0,0,1,1259.33,270.23Z"/><path class="cls-12" d="M1260.57,269.8a1.45,1.45,0,1,1,.79-1.89A1.45,1.45,0,0,1,1260.57,269.8Z"/><path class="cls-11" d="M1261,269.66a1.22,1.22,0,1,1,.66-1.59A1.22,1.22,0,0,1,1261,269.66Z"/><path class="cls-1" d="M1258.33,265.46a1.19,1.19,0,1,1,.65-1.56A1.2,1.2,0,0,1,1258.33,265.46Z"/></g><path class="cls-8" d="M1252.41,257.81s-.6-1.81,2.68-4.35c0,0-1.36,2.39-.72,4.12l1.86.58s0-1.83,2.87-3a6.3,6.3,0,0,0-1.29,3.93l1,.84s.21-1.22,2.77-2.05c0,0-1.7,2.25-1.64,3.43l.77.67,2.11-1.43s-1.42,1.44-1.33,2.74C1261.54,263.27,1257.79,258.16,1252.41,257.81Z"/><path class="cls-8" d="M1264.26,279.14s4.72-4.9.72-14.3-9.26-10-9.26-10,7.55,1.15,10.46,10.51S1264.26,279.14,1264.26,279.14Z"/><path class="cls-8" d="M1277.54,275.52s-1.3,2.06-1.76-.63.62-7.53-2.94-16.23-8-11.63-8-11.63,7.57,3.42,11.6,14.93C1279.34,270.38,1277.54,275.52,1277.54,275.52Z"/><path class="cls-7" d="M1280.84,327.24l3.8,1s6.67-12.92-2.24-20.53c0,0-4.83-5.68-11.68-3Z"/><path class="cls-8" d="M1270.72,304.72s7.35,0,11.83,8.14a13.45,13.45,0,0,1-.52,14.51,9.64,9.64,0,0,1-8.66-5.14C1270.25,316.62,1268.35,309.28,1270.72,304.72Z"/><path class="cls-1" d="M1270.42,304.9s7.71.52,11.22,9.42-.8,12.92-.8,12.92a14.88,14.88,0,0,1-7.95-8.35C1270.43,312.53,1269.15,307.68,1270.42,304.9Z"/><g class="cls-13"><path class="cls-8" d="M1271.92,318.32a6.46,6.46,0,1,0,3.54-8.43A6.47,6.47,0,0,0,1271.92,318.32Z"/><path class="cls-10" d="M1273.07,317.85a5.22,5.22,0,1,0,2.86-6.81A5.22,5.22,0,0,0,1273.07,317.85Z"/><path class="cls-11" d="M1274.51,317.19a3.57,3.57,0,1,0,2-4.66A3.57,3.57,0,0,0,1274.51,317.19Z"/><path class="cls-8" d="M1280.3,314.66a2.48,2.48,0,1,0-1.35,3.24A2.48,2.48,0,0,0,1280.3,314.66Z"/><path class="cls-1" d="M1277.86,313.16a1.19,1.19,0,1,1,.65-1.55A1.19,1.19,0,0,1,1277.86,313.16Z"/><path class="cls-12" d="M1280.87,315.83a1.47,1.47,0,0,0-1.9-.79,1.45,1.45,0,0,0,1.1,2.69A1.47,1.47,0,0,0,1280.87,315.83Z"/><path class="cls-11" d="M1281.07,316.25a1.22,1.22,0,0,0-2.25.92,1.23,1.23,0,0,0,1.59.67A1.22,1.22,0,0,0,1281.07,316.25Z"/></g><path class="cls-8" d="M1280.84,327.24s.84,1.71,5,1.22c0,0-2.64-.75-3.4-2.43l.92-1.72s1.26,1.33,4.16.14a6.27,6.27,0,0,1-3.67-1.9l.16-1.33s1,.72,3.41-.48c0,0-2.79-.42-3.57-1.3l.07-1,2.51-.46s-2,0-2.88-1C1283.51,316.94,1284.43,323.22,1280.84,327.24Z"/><path class="cls-8" d="M1274.32,303.72s6.81.19,10.56,9.7.41,13.62.41,13.62,4.57-6.12.09-14.82S1274.32,303.72,1274.32,303.72Z"/><path class="cls-8" d="M1286.33,297s-2.36-.56-.81,1.68,5.72,4.94,9.29,13.64,2.43,13.92,2.43,13.92,3-7.74-2.21-18.78C1291.23,299.39,1286.33,297,1286.33,297Z"/><path class="cls-14" d="M1233.62,305.92a12.36,12.36,0,0,0,5.41,4,6.56,6.56,0,0,0-2.77-5.23,6.57,6.57,0,0,0-1.69-5.68,12.36,12.36,0,0,0-1.09,6.62Z"/><path class="cls-15" d="M1231.32,324.76c-1.14,1-3,0-4.49-.5-4.29-1.39-10.88-4.86-13-10.68-2.66-7.45,1.3-14,4.4-19.75,2.38,4.2,8.64,10.79,6.43,15.7C1229.85,311.27,1229.79,319.69,1231.32,324.76Zm-13.12-30.13c-1.75,7.93,1.79,20.21,7.92,26,1.58,1.49,3.29,3.19,4.93,3.44C1223.73,317.13,1220.23,303.89,1218.2,294.63Z"/><path class="cls-16" d="M1231.05,324.09c-1.64-.25-3.35-1.95-4.93-3.44-6.13-5.81-9.67-18.09-7.92-26C1220.23,303.89,1223.73,317.13,1231.05,324.09Z"/><path class="cls-4" d="M1266,234.58c6-2.24,12.22-4.23,18.63-4.84A45.23,45.23,0,0,1,1325,248.32a17,17,0,0,1,3.34,7.44c.36,2.72-5.11,9.29-7.34,10.89-2.28-3.55-3.4-10.22-6.93-12.53-9.34-6.12-18.34-8.68-29.47-7.68-9.73.87-19.13,4.57-28.9,4.63a39.25,39.25,0,0,1-17.23-3.91A213,213,0,0,1,1266,234.58Z"/><path class="cls-4" d="M1323.76,284c-1.17,4.18-4,7.69-7.11,10.74a61.92,61.92,0,0,1-16.76,11.78c7.59-1,14.22-5.45,20.53-9.79,7.53-5.16,8.23-6.88,8.83-7.72a73.84,73.84,0,0,1-32.47,25.13,23.28,23.28,0,0,0,9-2.45,84.78,84.78,0,0,0,22.86-15c0,2.32-1.57,4.31-3.11,6-6.19,6.9-13.47,12.87-18.71,20.51s-8.2,17.73-4.49,26.22c-1-1.46.48-3.36,1.89-4.46,7.54-5.91,15.66-11.09,22.92-17.34s13.75-13.8,16.86-22.86a67.48,67.48,0,0,0,2.72-12.92c.86-6.24,1.54-12.64.15-18.78a53,53,0,0,0-3-8.72c-1.8-4.27-3.78-8.65-7.27-11.7s-8.88-4.41-12.82-2a14.08,14.08,0,0,0-4.44,5.17,46.34,46.34,0,0,0-4.13,9.57A16.29,16.29,0,0,1,1323.76,284Z"/><path class="cls-4" d="M1282.26,269c.85-4.93,1.13-10,2.2-14.84s3-9.76,6.7-13.18,9.24-5.07,13.83-3.08a37.76,37.76,0,0,0-14.66,13.05A62.78,62.78,0,0,0,1282.26,269Z"/><path class="cls-17" d="M1134.44,406c7.88-5.6,15.28-11.84,22.67-18.07,4-3.41,8.11-6.86,11.26-11.09a37.09,37.09,0,0,0,5.29-10.18c-20.57,12.13-53.48,14.28-53.48,14.28,17.62-16.37,19.72-32.52,33.93-59.51,7.39-14,15.08-16.86,19.41-19.88-.15-.78-1.69-5.27-1.86-6.05a6.57,6.57,0,0,0-1.41-3.32c-1.46-1.5-3.89-1.31-6-.89-23.54,4.83-40.25,24.91-58.67,40.36-39.15,32.84-90.22,46.68-137.57,65.9a8.2,8.2,0,0,0-2.83,1.65c-2.35,2.42-.81,6.47,1.08,9.27,8.12,12,20.85,20.42,34.59,25s28.49,5.5,42.94,4.59A176.3,176.3,0,0,0,1134.44,406Z"/><path class="cls-5" d="M144.62,551c16.37-19.43,36.2-37.57,61.2-44.64,12.82-3.63,25.69-3,38.84-3.21,16.42-.26,32.86-.14,49.26.71,29.82,1.55,58.38,4.49,78.43,6.71,21,2.32,38-.11,59.22-.16,24.18-.06,32.42,8.66,56.6,8.6,114.54-.29,229.66-.61,343-17.92l20.18-15.51c10.14,2.61,21.43-3.21,26.72-11.89s5.41-19.42,2.72-29C872.18,414,837.63,395.32,804,393.1s-66.72,8.52-98.7,19.12l-74.59,24.71c-47.09,15.6-96,34.6-144.55,25.42-23.86-4.51-45.28-13.71-69.61-15.12-23.39-1.36-48.51,1.31-71.32,6.79A519.91,519.91,0,0,1,229.11,468.3a59.69,59.69,0,0,1-11.88-2.73C209.84,463,202.78,459,195,458.45c-11.45-.79-21.82,6-32.37,10.58a86.63,86.63,0,0,1-27.7,6.82c-2.27,5.45-2.23,15.78,6.56,14.35l-12.95,10.63c-3.77,3.09-7.65,6.33-9.67,10.76a27.9,27.9,0,0,0-2,8.85A107.44,107.44,0,0,0,121.7,565a5.46,5.46,0,0,0,1.84,3c1.78,1.17,4.14,0,5.85-1.27C135.26,562.35,139.9,556.58,144.62,551Z"/><path class="cls-18" d="M127.79,569c6.45-4.58,11.41-10.88,16.45-17,1.47-1.79,4.08-4.51,5.61-6.27C137,538.07,138.4,519,143.7,506.22c10.9-26.56,40-32.47,64.31-43a1.32,1.32,0,0,0,0-2.44c-4.32-1.78-8.67-3.35-13.29-3.69-11.53-.84-22,6.14-32.57,10.79a85.39,85.39,0,0,1-27.87,6.93c-2.27,5.59-2.21,16.2,6.64,14.76l-13,10.88c-3.78,3.16-7.68,6.48-9.71,11a29.2,29.2,0,0,0-2,9.08,112.53,112.53,0,0,0,5,45.74c.59,1.82,1.38,3.82,4.07,3.63A5,5,0,0,0,127.79,569Z"/><path class="cls-2" d="M464.05,485.62c55.36,19.81,94.51-1.2,107.51-6.23,58-22.46,120.14-33,180.7-48.06,23.5-5.85,47.28-12.59,67.38-25.6s36.28-33.4,37.82-56.21-15-46.78-39-49.83c-14.77-1.89-29.41,3.87-43.19,9.5C691.86,343.3,612.39,386.13,530,421.75c-25.5,11-27.46,5.25-33.65,6.4"/><path class="cls-18" d="M900,450.07Q885.55,468.7,869.41,486c-4.83,5.16-9.83,10.28-15.86,14-7.37,4.5-15.9,6.65-24.29,8.72-15,3.69-30,7.33-45.32,9.28-18.41,2.35-37.05,2.21-55.61,2.08-25.16-.19-68.54,1.29-93.7,1.1-1.19-17.75-3.68-38.35-6.06-56-4.36-32.24-19.27-60.37-23.62-92.61,27-6.9,78.57-27.4,101.2-43.65s55.77-43.06,83.57-44.92c18.94-1.26,45.13,3.6,63.36,8.86,18.59,5.37,21.31,22.3,39.89,27.67q6.6,54.19,13.18,108.38c.41,3.38.82,6.84.07,10.16C905.29,443.19,902.65,446.71,900,450.07Z"/><path class="cls-19" d="M796.57,428.35a5.14,5.14,0,0,0,5.17,6.42,344.58,344.58,0,0,1,84.31,7.43,34.64,34.64,0,0,0,8.15,1.12,33.34,33.34,0,0,0,9.31-2.05l47.61-15.42,34.64-11.22,8.35-2.71,48.21-15.61c12.65-4.1,45.37-26.42,47.45-28.31l82.6-75c-17.26-18.23-35.87-40.56-45.35-64.12a7,7,0,0,0-7-4.41c-30.92,2-54.89,18.93-81.47,36.23-28.08,18.26-55.89,38.57-88.37,46.78a38.34,38.34,0,0,1-10.3,1.49c-4.75-.11-9.33-1.7-13.79-3.31-40.9-14.74-82.13-33-125.59-31.88A348.38,348.38,0,0,1,796.57,428.35Z"/><path class="cls-19" d="M1174.1,368.82s-71.94,43.67-102.49,54.11-93.49-9.64-93.49-9.64l-83.92,30s-47.31,48.05-79.09,61.92a1.23,1.23,0,0,0,.52,2.35l35.31-.82s83.9-44.63,88-46.8,69.21-8.72,69.21-8.72,51.26,18.81,81.05-2c27.76-19.37,49-22.64,65.07-26.46a5.47,5.47,0,0,0,4.1-4.27C1160.61,407.27,1168,371.89,1174.1,368.82Z"/><path class="cls-3" d="M809.35,305.88s63,1.72,96.75,14.39c0,0-52-18.3-98.37-21.78Z"/><path class="cls-20" d="M973,419.55a3.94,3.94,0,1,1,3.41-4.4A3.94,3.94,0,0,1,973,419.55Z"/><path class="cls-20" d="M946.13,422.93a3.94,3.94,0,1,1,3.42-4.4A4,4,0,0,1,946.13,422.93Z"/><path class="cls-3" d="M1178.54,303s-2.92-14.91-10-15.83-70.71,30.66-70.71,30.66,13.5,16.69,11.06,32.27c0,0,44.25-35.09,55.49-44.54s9.16-4,9.16-4Z"/><path class="cls-3" d="M1111.31,346.19s-34.39-20.87-52.62-23.06c0,0-36.38,61.89-50.52,73s-31.78,19-31.78,19c4,1.39,60.55-12.64,80.25-23.41S1104,354,1108.87,350.12,1111.74,346.82,1111.31,346.19Z"/><path class="cls-3" d="M1181.38,359.79s-2.8,10.71-9.25,17-47.06,42.87-47.06,42.87.48-20.78-2-24.26c0,0,43.19-21.66,48.11-26.43S1179,359.75,1181.38,359.79Z"/><path class="cls-3" d="M1123,395.45s-34.77,22.68-47.3,24.61-50.12,4.93-66.27.06a221.69,221.69,0,0,0-31.35-6.83s-4.17-1.12-1.73,1.86,59.49,28.23,81.28,28.59S1114,430.09,1114,430.09s15.26-29.55,15.09-30.9S1123,395.45,1123,395.45Z"/><path class="cls-2" d="M496.39,428.15C481.9,417.78,481,397.69,477,380.76c-9.05-38.12-39.34-68.13-64.1-99.53q-12.92-16.39-24.14-34l.49-.3c-4-6.82-10.34-13.4-10-21.28.3-8.06,5.2-15.54,4.86-23.59-.33-7.68-5.39-14.35-11.07-19.52s-12.22-9.44-17.13-15.35c-7.49-9-10.53-21.09-18-30.14-10.13-12.28-26.61-17-42.15-20.46-10.29-2.27-22.44-3.78-30.1,3.44a11.45,11.45,0,0,0-3.22,4.9c-1.85,6.24,3.56,12,8.25,16.56a356.29,356.29,0,0,1,42.48,49.92c39.73,62.2,75.37,127.35,98.35,196.54,11.77,35.43,22.18,74.79,52.59,97.62"/><path class="cls-18" d="M327.82,155.61c18.81,18.8,40.62,38.45,51.72,63a1.29,1.29,0,0,0,2.43-.21c1.43-5.63,3.13-11.7,3-17.17-.21-7.82-5.22-14.55-10.89-19.73s-12.23-9.44-17.1-15.38c-7.44-9.09-10.32-21.36-17.74-30.47-10.06-12.37-26.67-16.93-42.38-20.18-10.69-2.21-23.41-3.56-31.25,4.72a11.35,11.35,0,0,0-2,2.73c-3.56,7,2.34,13.48,7.42,18.39,6.54,6.34,11.13,12.18,17.18,19.21-.07-.36,1.53.18,1.46-.18C287.42,143.5,317.29,145.75,327.82,155.61Z"/><image width="600" height="467" transform="translate(838.19 273.26) scale(0.58)" xlink:href="../../../SoMe - Projekt/pude.png"/><path class="cls-21" d="M981.72,373.23s16.35,19.28,21.65,24.53,10.27,14.77,11.59,23.05,6,19.25,7.18,24.63,3.94,14.12,5.58,15.54,6.45,5.51,4.6,7-9.66-1.24-13.35-6.28c0,0-.18,13.67.95,18.73,0,0-3.19,17.06-3.31,27.12,0,0-.83,6.44-5.22-1.61s-.2-21.43-.2-21.43l-1.65-5.48a11.27,11.27,0,0,1-3.18,7.57c-3.27,3.19-12.88,18.67-15,22.26,0,0-5,3.7-4.56-2.52s6.52-16.47,11.91-24.46l.83-5.08-15.06,15.62c-2.75,2.86-8.74,8.16-8.47,2.18S992.08,471,992.08,471l4.22-10.2-5.6,6.89s-11.49,14.46-15.18,14.09.94-8.22,5.06-13.93,7.19-10,7.19-10l3.6-14.86s-1.9-20.59-.45-29.15L976.16,400.3Z"/><path class="cls-3" d="M922.19,276c-4.78-.36-10.08,0-13.59,3.22-5.81,5.38-3.41,14.9-.52,22.28Q929.85,357,955.65,410.82a72.89,72.89,0,0,0,52.64-13.66c-20.08-18.11-26.81-46.31-33.4-72.54-2-8.14-4.22-16.38-8.52-23.59C957.36,285.92,939.75,277.26,922.19,276Z"/><path class="cls-3" d="M1117.45,211.92c-1.77-3.91-4.57-7.57-8.53-9.23-5.09-2.13-10.91-.56-16.13,1.24-23.68,8.15-45.68,20.43-68.28,31.25-27.75,13.28-56.48,24.38-85.19,35.46l-29.8,11.51a115.85,115.85,0,0,0,22.78,44.33c7.76.27,14.41-5,21.09-9C964.05,311.21,976.2,308,988.2,305q25.06-6.3,50.32-11.8c13.85-3,28-5.93,40.42-12.71A97.37,97.37,0,0,0,1096.28,268c8.08-7.05,15.55-15.15,20-24.91S1121.88,221.7,1117.45,211.92Z"/></svg>